<svg xmlns="http://www.w3.org/2000/svg" viewBox="0 0 64 64">
  <defs>
    <linearGradient id="g" x1="0" y1="0" x2="1" y2="1">
      <stop offset="0" stop-color="#7c5cff"/>
      <stop offset="1" stop-color="#ff5c8a"/>
    </linearGradient>
  </defs>
  <rect width="64" height="64" rx="14" fill="#0b0b10"/>
  <path d="M32 10c-8 0-14 6-14 14 0 11 14 28 14 28s14-17 14-28c0-8-6-14-14-14z" fill="url(#g)"/>
  <circle cx="32" cy="24" r="6" fill="#0b0b10"/>
  <path d="M30 18v9a3 3 0 1 1-2-2.8V20l6-2v6a3 3 0 1 1-2-2.8V16l-2 .6z" fill="#fff" transform="translate(1 1)"/>
</svg>
